# xmcd CD database file
#
# Track frame offsets:
#	150
#	13647
#	34678
#	49332
#	66648
#
# Disc length: 1129 seconds
#
# Revision: 0
# Processed by: cddbd v1.5.1PL0 Copyright (c) Steve Scherf et al.
# Submitted via: CDex 1.51
#
DISCID=42046705
DTITLE=Annett Louisan - Unausgesprochen LIVE!
DYEAR=2005
DGENRE=Jazz
TTITLE0=Der den ich will
TTITLE1=Er gehörte mal mir
TTITLE2=Eve
TTITLE3=Thorsten Schmidt
TTITLE4=Wo ist das Problem
EXTD=YEAR: 2005
EXTT0=
EXTT1=
EXTT2=
EXTT3=
EXTT4=
PLAYORDER=
